HIERARCHY
ROOT joint_Root
{
	OFFSET 0.0 0.0 0.0
	CHANNELS 6 Xposition Yposition Zposition Zrotation Xrotation Yrotation 
	JOINT Hips
	{
		OFFSET 4.5925 91.4895 -427.239
		CHANNELS 6 Xposition Yposition Zposition Zrotation Xrotation Yrotation 
		JOINT Spine
		{
			OFFSET 15.7357 0.0 0.0
			CHANNELS 6 Xposition Yposition Zposition Zrotation Xrotation Yrotation 
			JOINT Chest
			{
				OFFSET 8.98455 -0.406207 0.0
				CHANNELS 6 Xposition Yposition Zposition Zrotation Xrotation Yrotation 
				JOINT Neck
				{
					OFFSET 16.3773 0.0 0.0
					CHANNELS 6 Xposition Yposition Zposition Zrotation Xrotation Yrotation 
					JOINT Head
					{
						OFFSET 6.45672 0.0 0.0
						CHANNELS 6 Xposition Yposition Zposition Zrotation Xrotation Yrotation 
						End Site
						{
							OFFSET 0.0 0.0 0.0
						}
					}
				}
				JOINT Shoulder_L
				{
					OFFSET 12.9942 -0.242716 4.98039
					CHANNELS 6 Xposition Yposition Zposition Zrotation Xrotation Yrotation 
					JOINT UpperArm_L
					{
						OFFSET 5.34809 0.0 0.0
						CHANNELS 6 Xposition Yposition Zposition Zrotation Xrotation Yrotation 
						JOINT LowerArm_L
						{
							OFFSET 24.3286 1.87007e-05 0.0
							CHANNELS 6 Xposition Yposition Zposition Zrotation Xrotation Yrotation 
							JOINT Hand_L
							{
								OFFSET 22.2916 0.0 0.0
								CHANNELS 6 Xposition Yposition Zposition Zrotation Xrotation Yrotation 
								End Site
								{
									OFFSET 0.0 0.0 0.0
								}
							}
						}
					}
				}
				JOINT Shoulder_R
				{
					OFFSET 12.9945 -0.242716 -4.98039
					CHANNELS 6 Xposition Yposition Zposition Zrotation Xrotation Yrotation 
					JOINT UpperArm_R
					{
						OFFSET -5.34813 0.0 0.0
						CHANNELS 6 Xposition Yposition Zposition Zrotation Xrotation Yrotation 
						JOINT LowerArm_R
						{
							OFFSET -24.3289 0.000322201 0.0
							CHANNELS 6 Xposition Yposition Zposition Zrotation Xrotation Yrotation 
							JOINT Hand_R
							{
								OFFSET -22.2915 -0.000108084 0.0
								CHANNELS 6 Xposition Yposition Zposition Zrotation Xrotation Yrotation 
								End Site
								{
									OFFSET 0.0 0.0 0.0
								}
							}
						}
					}
				}
			}
		}
		JOINT UpperLeg_L
		{
			OFFSET -2.19248 -6.46944 0.0
			CHANNELS 6 Xposition Yposition Zposition Zrotation Xrotation Yrotation 
			JOINT LowerLeg_L
			{
				OFFSET 39.0811 0.0 -1.23785e-05
				CHANNELS 6 Xposition Yposition Zposition Zrotation Xrotation Yrotation 
				JOINT Foot_L
				{
					OFFSET 40.9854 0.0 -1.26872e-05
					CHANNELS 6 Xposition Yposition Zposition Zrotation Xrotation Yrotation 
					JOINT Toes_L
					{
						OFFSET 11.7543 0.0 0.0
						CHANNELS 6 Xposition Yposition Zposition Zrotation Xrotation Yrotation 
						End Site
						{
							OFFSET 0.0 0.0 0.0
						}
					}
				}
			}
		}
		JOINT UpperLeg_R
		{
			OFFSET -2.19251 6.46944 0.0
			CHANNELS 6 Xposition Yposition Zposition Zrotation Xrotation Yrotation 
			JOINT LowerLeg_R
			{
				OFFSET -39.0811 -0.00228153 -0.0401928
				CHANNELS 6 Xposition Yposition Zposition Zrotation Xrotation Yrotation 
				JOINT Foot_R
				{
					OFFSET -40.9854 0.0 0.0
					CHANNELS 6 Xposition Yposition Zposition Zrotation Xrotation Yrotation 
					JOINT Toes_R
					{
						OFFSET -11.7543 0.0 0.0
						CHANNELS 6 Xposition Yposition Zposition Zrotation Xrotation Yrotation 
						End Site
						{
							OFFSET 0.0 0.0 0.0
						}
					}
				}
			}
		}
	}
}
MOTION
Frames:	7
Frame Time:	0.0333333
0.000000 0.000000 0.000000 0.000000 0.000000 -0.000000 10.333500 90.672200 -25.697400 89.107800 -3.118500 4.205090 15.735700 0.000005 -0.000001 78.335500 85.280700 -78.368000 8.984550 -0.406207 -0.000000 1.478050 -1.905550 -0.040315 16.377300 -0.000001 -0.000001 -3.922490 -2.290280 -1.047840 6.456720 -0.000001 -0.000000 -11.671200 -0.980605 -2.488160 12.994200 -0.242716 4.980390 -91.147000 4.157040 -74.560400 5.348090 -0.000007 -0.000001 -55.651500 36.627000 -28.481000 24.328600 0.000019 0.000005 10.486700 21.463400 -26.834100 22.291600 -0.000001 0.000005 10.799800 5.219790 2.218450 12.994500 -0.242716 -4.980390 88.469300 9.151750 -80.462500 -5.348130 -0.000001 -0.000004 -71.566600 23.482600 3.973970 -24.328900 0.000322 -0.000009 1.210710 6.651400 -10.349300 -22.291500 -0.000108 -0.000004 12.244100 5.329020 -0.756994 -2.192480 -6.469440 -0.000000 -178.643000 -4.857270 1.531910 39.081100 -0.000007 -0.000012 0.021827 -0.042323 27.280400 40.985400 -0.000006 -0.000013 5.983910 3.972780 -73.943500 11.754300 -0.000000 0.000003 -1.858660 -2.397010 -16.587300 -2.192510 6.469440 -0.000001 -179.210000 14.814200 158.688000 -39.081100 -0.002282 -0.040193 0.070536 -0.048331 54.318300 -40.985400 0.000008 0.000006 4.915900 -3.747100 -59.431800 -11.754300 -0.000006 -0.000006 -0.017295 -0.151819 -22.771200
0.000000 0.000000 0.000000 0.000000 0.000000 -0.000000 10.252500 90.568000 -23.186600 89.393900 -1.728490 3.461760 15.735700 0.000005 -0.000001 73.040600 85.146000 -73.075400 8.984550 -0.406207 -0.000000 1.520910 -2.828380 -0.032004 16.377300 -0.000001 -0.000001 -4.302030 -2.032300 -0.702925 6.456720 -0.000001 -0.000000 -12.086800 0.034418 -2.062930 12.994200 -0.242716 4.980390 -91.034400 3.848000 -74.941400 5.348090 -0.000007 -0.000001 -54.708700 33.537100 -31.176000 24.328600 0.000019 0.000005 10.837600 18.699000 -30.845000 22.291600 -0.000001 0.000005 12.023300 5.231020 1.930040 12.994500 -0.242716 -4.980390 88.353900 8.941580 -79.524200 -5.348130 -0.000001 -0.000004 -71.987100 22.622700 7.311380 -24.328900 0.000322 -0.000009 1.283670 7.700370 -9.502030 -22.291500 -0.000108 -0.000004 11.434500 5.319370 -0.477246 -2.192480 -6.469440 -0.000000 -178.518000 -4.863950 2.872820 39.081100 -0.000007 -0.000012 0.014163 -0.028788 26.195600 40.985400 -0.000006 -0.000013 5.897510 5.653030 -73.728200 11.754300 -0.000000 0.000003 -1.595690 -2.034100 -18.151800 -2.192510 6.469440 -0.000001 -177.586000 16.854500 157.302000 -39.081100 -0.002282 -0.040193 0.043757 -0.042896 43.345900 -40.985400 0.000008 0.000006 4.755960 -2.325180 -60.158300 -11.754300 -0.000006 -0.000006 -0.018869 -0.160941 -23.146500
0.000000 0.000000 0.000000 0.000000 0.000000 -0.000000 10.151400 90.244700 -20.512100 89.570800 -0.720887 2.769600 15.735700 0.000005 -0.000001 68.282400 85.005400 -68.263200 8.984550 -0.406207 -0.000000 1.518280 -3.695470 0.087516 16.377300 -0.000001 -0.000001 -4.455930 -1.815330 -0.310890 6.456720 -0.000001 -0.000000 -12.691000 0.987204 -1.485190 12.994200 -0.242716 4.980390 -90.921200 3.460070 -75.082500 5.348090 -0.000007 -0.000001 -54.187200 30.890900 -32.755400 24.328600 0.000019 0.000005 10.801500 15.818600 -34.989600 22.291600 -0.000001 0.000005 13.481400 5.241430 1.658930 12.994500 -0.242716 -4.980390 88.255000 8.721180 -78.638800 -5.348130 -0.000001 -0.000004 -72.106800 21.939800 9.897600 -24.328900 0.000322 -0.000009 1.371120 9.272850 -8.455730 -22.291500 -0.000108 -0.000004 11.157700 5.308920 -0.179409 -2.192480 -6.469440 -0.000000 -178.033000 -5.676390 4.264980 39.081100 -0.000007 -0.000012 0.007742 -0.016148 25.615600 40.985400 -0.000006 -0.000013 6.292330 7.665910 -74.198300 11.754300 -0.000000 0.000003 -1.549260 -1.934130 -19.463200 -2.192510 6.469440 -0.000001 -175.484000 19.760800 156.177000 -39.081100 -0.002282 -0.040193 0.023901 -0.033265 31.771400 -40.985400 0.000008 0.000006 4.168090 1.829340 -58.567300 -11.754300 -0.000006 -0.000006 -0.018865 -0.160919 -23.145600
0.000000 0.000000 0.000000 0.000000 0.000000 -0.000000 9.955910 89.788700 -17.670700 89.263400 -0.446036 1.972810 15.735700 0.000005 -0.000001 65.603000 84.942700 -65.312900 8.984550 -0.406207 -0.000000 1.460480 -4.191800 0.633467 16.377300 -0.000001 -0.000001 -4.385250 -1.650280 -0.044750 6.456720 -0.000001 -0.000000 -13.517300 1.658500 -0.856408 12.994200 -0.242716 4.980390 -90.927400 3.449770 -74.942800 5.348090 -0.000007 -0.000001 -53.465200 28.813300 -33.722900 24.328600 0.000019 0.000005 10.922200 13.801000 -38.971500 22.291600 -0.000001 0.000005 14.999000 5.253860 1.330520 12.994500 -0.242716 -4.980390 88.109000 8.849760 -77.887700 -5.348130 -0.000001 -0.000004 -71.353900 20.939400 11.634100 -24.328900 0.000322 -0.000009 1.304220 10.245400 -7.300450 -22.291500 -0.000108 -0.000004 11.212700 5.293820 0.244872 -2.192480 -6.469440 -0.000000 -176.689000 -7.466800 5.586580 39.081100 -0.000007 -0.000012 -0.005708 0.012015 25.411200 40.985400 -0.000006 -0.000013 6.345750 10.182700 -74.810300 11.754300 -0.000000 0.000003 -1.260790 -1.555260 -21.239100 -2.192510 6.469440 -0.000001 -171.549000 23.010600 153.348000 -39.081100 -0.002282 -0.040193 0.034613 -0.070001 24.090300 -40.985400 0.000008 0.000006 6.755540 8.308730 -56.085000 -11.754300 -0.000006 -0.000006 -0.017966 -0.155751 -22.932900
0.000000 0.000000 0.000000 0.000000 0.000000 -0.000000 9.695200 89.100000 -14.406000 89.451800 -0.337974 1.209020 15.735700 0.000005 -0.000001 62.403500 84.995800 -61.970500 8.984550 -0.406207 -0.000000 1.126160 -4.659450 0.911452 16.377300 -0.000001 -0.000001 -4.171300 -1.511290 0.159279 6.456720 -0.000001 -0.000000 -13.699800 2.023660 -0.400978 12.994200 -0.242716 4.980390 -90.918500 3.390350 -74.831500 5.348090 -0.000007 -0.000001 -53.108900 27.437800 -33.623500 24.328600 0.000019 0.000005 11.315100 12.600600 -42.527900 22.291600 -0.000001 0.000005 16.616100 5.263890 1.063590 12.994500 -0.242716 -4.980390 87.963200 9.097360 -77.323500 -5.348130 -0.000001 -0.000004 -70.086200 19.265700 12.907400 -24.328900 0.000322 -0.000009 1.113070 10.515500 -6.082580 -22.291500 -0.000108 -0.000004 11.439200 5.287740 0.413354 -2.192480 -6.469440 -0.000000 -175.829000 -8.763960 6.834700 39.081100 -0.000007 -0.000012 -0.020082 0.041179 25.998200 40.985400 -0.000006 -0.000013 6.209350 12.313700 -75.329900 11.754300 -0.000000 0.000003 -0.821076 -1.015730 -22.850500 -2.192510 6.469440 -0.000001 -168.809000 24.222700 150.428000 -39.081100 -0.002282 -0.040193 0.029381 -0.065243 21.775300 -40.985400 0.000008 0.000006 8.535440 10.399900 -58.290500 -11.754300 -0.000006 -0.000006 -0.018661 -0.159758 -23.097800
0.000000 0.000000 0.000000 0.000000 0.000000 -0.000000 9.259560 88.385300 -10.799800 89.542500 0.053917 0.183298 15.735700 0.000005 -0.000001 57.367200 85.126000 -56.739200 8.984550 -0.406207 -0.000000 0.476562 -5.294910 1.277860 16.377300 -0.000001 -0.000001 -4.000170 -1.578380 0.301299 6.456720 -0.000001 -0.000000 -13.601500 2.130320 0.008648 12.994200 -0.242716 4.980390 -90.947000 3.468210 -74.717500 5.348090 -0.000007 -0.000001 -52.925600 26.749000 -32.689000 24.328600 0.000019 0.000005 11.769300 11.951200 -45.175800 22.291600 -0.000001 0.000005 17.924100 5.272480 0.831682 12.994500 -0.242716 -4.980390 87.694200 9.690840 -76.547800 -5.348130 -0.000001 -0.000004 -68.328300 17.940500 13.384500 -24.328900 0.000322 -0.000009 0.924422 10.797000 -4.928710 -22.291500 -0.000108 -0.000004 11.985900 5.275840 0.739195 -2.192480 -6.469440 -0.000000 -175.290000 -8.129650 7.394200 39.081100 -0.000007 -0.000012 -0.025107 0.048197 27.516200 40.985400 -0.000006 -0.000013 5.718440 13.016200 -75.586800 11.754300 -0.000000 0.000003 -0.018658 -0.159751 -23.101300 -2.192510 6.469440 -0.000001 -168.430000 21.598800 147.859000 -39.081100 -0.002282 -0.040193 0.086726 -0.186813 24.061000 -40.985400 0.000008 0.000006 10.530900 6.512150 -56.059600 -11.754300 -0.000006 -0.000006 -0.019363 -0.163738 -23.261600
0.000000 0.000000 0.000000 0.000000 0.000000 -0.000000 8.732670 87.702300 -6.676000 89.118200 1.063290 -0.681329 15.735700 0.000005 -0.000001 50.642300 85.171400 -49.571500 8.984550 -0.406207 -0.000000 -0.237422 -6.197550 2.129060 16.377300 -0.000001 -0.000001 -3.703970 -1.957980 0.382749 6.456720 -0.000001 -0.000000 -13.319000 2.100340 0.094765 12.994200 -0.242716 4.980390 -90.936200 3.443650 -74.781600 5.348090 -0.000007 -0.000001 -53.649200 26.829200 -30.665200 24.328600 0.000019 0.000005 11.842700 11.503300 -46.436900 22.291600 -0.000001 0.000005 18.885200 5.281570 0.583418 12.994500 -0.242716 -4.980390 87.456300 9.948550 -75.579500 -5.348130 -0.000001 -0.000004 -66.810200 16.759800 13.114000 -24.328900 0.000322 -0.000009 0.795949 11.679600 -3.931170 -22.291500 -0.000108 -0.000004 12.713300 5.252990 1.352280 -2.192480 -6.469440 -0.000000 -174.148000 -6.811140 7.875950 39.081100 -0.000007 -0.000012 -0.025243 0.044329 29.659800 40.985400 -0.000006 -0.000013 5.168400 13.710600 -74.859200 11.754300 -0.000000 0.000003 -0.043365 -0.273266 -27.812300 -2.192510 6.469440 -0.000001 -169.963000 17.384500 146.111000 -39.081100 -0.002282 -0.040193 0.041502 -0.066080 30.031800 -40.985400 0.000008 0.000006 9.317230 3.449680 -50.749000 -11.754300 -0.000006 -0.000006 -0.018854 -0.160855 -23.142900
